<svg xmlns="http://www.w3.org/2000/svg" xml:space="preserve" width="86.6986mm" height="86.6986mm" version="1.1" style="shape-rendering:geometricPrecision; text-rendering:geometricPrecision; image-rendering:optimizeQuality; fill-rule:evenodd; clip-rule:evenodd"
viewBox="0 0 8669.86 8669.86"
 xmlns:xlink="http://www.w3.org/1999/xlink"
 xmlns:xodm="http://www.corel.com/coreldraw/odm/2003">
 <defs>
  <style type="text/css">
   <![CDATA[
    .fil0 {fill:#96989B}
    .fil1 {fill:#241F20}
    .fil2 {fill:#FEFEFE}
    .fil3 {fill:#373535;fill-rule:nonzero}
   ]]>
  </style>
 </defs>
 <g id="Layer_x0020_1">
  <metadata id="CorelCorpID_0Corel-Layer"/>
  <rect class="fil0" x="-0.03" y="-0" width="8669.87" height="8669.87"/>
  <g id="_105553223544992">
   <path class="fil1" d="M2082.78 1495.23c0,53.08 103.14,174.96 194.76,206.64 90.45,31.28 126.89,-40.75 156.06,275.26 25.5,276.18 -291.35,487.46 -291.35,1227.77 0,110.05 12.05,178.49 14.85,267.62 2.52,80.58 9.18,192.9 21.13,276.2 7.75,54.04 29.6,225.79 22.77,272.42 -2.32,15.82 -231.63,427.99 -298.78,593.93 -98.39,243.12 -71.88,285.22 -116.77,477.9 -314.03,0 -501.36,-16.4 -585.86,231.8 -64.8,190.32 -109.88,614.76 -189.6,732.13 -33.49,49.3 -88.61,62.05 -178.42,133.79 -68.11,54.41 -136.03,158.74 -176.36,239.9 -133.29,268.14 15.06,476.11 238.24,476.11 111.62,0 127.92,-226.63 272.89,-243.1 62.1,-7.05 336.64,70.34 336.64,-202.9 0,-151.64 -93.68,-118.09 86.69,-344.45 65.95,-82.75 151.18,-118.9 151.18,-339.42 250.08,0 442.48,270.67 579.8,475.73 -215.32,113.94 -216,198.01 -265.13,225.47 -56.06,31.34 -135.5,12.47 -200.66,37.2 -245.29,93.12 49.52,425.64 49.52,569.87 0,62.36 -16.25,54.35 -7.05,110.96 6.49,39.91 21.56,72.89 36.52,97.43 85.66,140.63 321.77,157.94 400.09,-61.3 22.86,-63.99 61.05,-244.32 61.05,-325.49 77.9,-6.49 615.32,-183.9 661.29,-365.73 50.19,-198.52 -397.37,-826.06 -96.36,-1046.6 0,475.16 282.47,411.22 282.47,1560.99 0,85.82 -118.94,-0.18 -118.94,163.54 0,147.28 673.86,402.16 617.35,-410.77 -10.16,-146.11 -16.2,-297.93 -22.95,-436.36 -6.37,-130.43 -40.18,-281.88 -44.31,-416.56 -11.09,-362.24 -163.62,-358.07 -190.05,-493.82 -19.07,-97.93 18.72,-512.8 -9.75,-689.46 -17.41,-107.96 -14.25,-103 32.95,-172.86 159.36,-235.84 16.14,-222.03 81.51,-364.1 31.1,-67.59 70.45,-103.01 70.45,-182.67 0,-155.27 -215.35,-712.14 -694,-471 -205.1,103.33 -42.5,54.04 -212.87,39.86 0,-109.94 -48.13,-356.54 15.03,-505.31 80.02,-188.52 85.22,-245.08 120.97,-458.83 32.36,-193.52 37.92,-404.53 59.01,-520.79 43.35,-239.01 59.21,-464.1 -124.8,-681.47 -301.31,-355.94 -739.21,-109.59 -739.21,40.47z"/>
   <path class="fil2" d="M2338.18 1507.17c187.48,59.02 179.61,-59.68 254.95,206.28 139.39,492.11 -89.67,591.03 -214.51,1119.15 -68.2,288.51 -27.32,555.55 -1.48,851.18 53.03,606.67 64.22,290.39 -152.68,718.65 -101.6,200.6 -225.91,438.43 -231.01,704.75 -6.94,361.54 -87.94,134.95 -475.6,192.08 -86.55,12.76 -109.58,27.19 -133.33,106.15 -67.74,225.29 -87.29,554.15 -193.32,743.6 -68.75,122.83 -463.23,288.99 -369.5,531.59 117.9,-34.32 75.12,-252.36 479.08,-209.17 -14.2,-124.9 -98.16,-175.78 87.94,-422.51 30.87,-40.94 113.23,-131.08 126.57,-155.42 37.01,-67.58 1.33,-189.98 20.95,-279.36 77.5,-80.65 255.14,-48.3 379.08,-11.55 234.06,69.38 371.73,258.45 506.19,444.87 36.37,50.43 59.58,87.62 97.51,140.65 176.54,246.91 -75.39,170.43 -243.4,346.49 -183.88,192.68 -98.05,107.15 -286.64,174.22 -2.51,0.9 -7.39,2.57 -10.69,4.61 26.42,71.58 66.26,128.22 94.4,203.22 36.11,96.24 21.12,235.49 39.83,272.92 66.11,-34.47 70.12,-198.24 80.41,-277.77 20.16,-155.79 21.95,-150 159.98,-195.84 169.78,-56.38 363.6,-128.08 498.88,-214.79 -2.83,-168.06 -226.81,-501.11 -196.68,-853.73 12.5,-146.23 374.94,-697.36 494.42,-493.56 35.69,141.84 -14.02,352.53 39.09,542.02 37.26,132.98 95.3,169.16 159.8,436.19 75.42,312.18 134.94,721.65 71.29,1046.27 163.56,-43.99 121.99,-401.94 111.99,-558.56 -13.65,-213.91 -38.53,-417.94 -59.28,-629.3 -14.3,-145.6 6.02,-161.44 -69.29,-270.3 -44.46,-64.28 -108.4,-134 -117.33,-225.99 -19.19,-197.58 -11.26,-466.01 -14.31,-671.08 -191.93,53.91 -329.97,8.71 -424.58,-107.89 -167.24,-206.1 39.58,-282.52 159.15,-344.52 -30.15,-72.75 -201.36,-180.62 -53.61,-399.98 97.74,-145.09 189.95,-161.47 413.93,-124.53 -163.06,-299.01 -426.79,36.76 -524.34,29.71 -89.21,-6.45 -70.2,-91.67 -188.39,-40.84 -15.32,55.72 -12.23,229.45 -4.85,291.49 18.48,155.41 128.72,16.23 180.79,131.39 81.31,179.82 -238.78,198.29 -337.61,24.43 -53.95,-94.92 -71.45,-442.21 -10.07,-544.88 79.57,-133.09 81.39,-1.6 55.98,-216.92 -11.12,-94.26 -14.92,-199.44 -4.28,-296.07 19.13,-173.69 99.55,-289.04 134.45,-476.66 33.82,-181.88 50.91,-365.34 65.89,-554.44 10.21,-128.78 137.56,-492.72 -148.69,-680.51 -60.18,-39.49 -186.67,-59.53 -247.08,-5.74z"/>
   <path class="fil2" d="M3220.85 4426.22c55.28,15.74 89.67,52.22 139.99,27.48 33.22,-66.68 5.39,-116.13 10.14,-194.1 5.12,-84.18 37.02,-92.39 53.92,-162.7 -85.81,-70.93 -273.31,-116.67 -320.31,-2.35 -48.31,117.51 125.76,102.56 116.26,331.67z"/>
  </g>
  <path class="fil3" d="M4178.14 3731.69c0,-7.97 1.49,-14.14 4.48,-18.52 2.99,-4.38 7.07,-6.57 12.24,-6.57 3.59,0 7.57,1.4 11.95,4.18 4.38,2.79 9.75,7.37 16.13,13.74l176.79 175.6 176.79 -175.6c6.37,-6.37 11.75,-10.95 16.13,-13.74 4.38,-2.78 8.36,-4.18 11.94,-4.18 5.58,0 9.76,2.19 12.54,6.57 2.79,4.38 4.18,10.55 4.18,18.52l0 384.04c0,11.95 -5.97,17.92 -17.91,17.92l-104.53 0c-11.94,0 -17.91,-5.97 -17.91,-17.92l0 -124.23 -57.94 56.14c-5.57,5.58 -10.05,9.46 -13.44,11.65 -3.38,2.19 -6.67,3.28 -9.85,3.28 -3.19,0 -6.47,-1.09 -9.86,-3.28 -3.38,-2.19 -7.86,-6.07 -13.44,-11.65l-57.93 -56.14 0 124.23c0,11.95 -5.97,17.92 -17.92,17.92l-104.52 0c-11.95,0 -17.92,-5.97 -17.92,-17.92l0 -384.04zm493.94 193.51c0,-42.6 9.75,-80.53 29.26,-113.78 19.52,-33.25 46.69,-59.03 81.53,-77.34 34.84,-18.32 74.36,-27.48 118.56,-27.48 44.6,0 84.41,9.16 119.45,27.48 35.04,18.31 62.32,44.09 81.83,77.34 19.51,33.25 29.27,71.18 29.27,113.78 0,42.61 -9.76,80.34 -29.27,113.19 -19.51,32.85 -46.79,58.43 -81.83,76.74 -35.04,18.32 -74.85,27.48 -119.45,27.48 -44.6,0 -84.22,-9.16 -118.86,-27.48 -34.64,-18.31 -61.71,-43.89 -81.23,-76.74 -19.51,-32.85 -29.26,-70.58 -29.26,-113.19zm229.35 90.79c16.72,0 31.75,-3.59 45.09,-10.75 13.34,-7.17 23.79,-17.62 31.36,-31.36 7.57,-13.74 11.35,-29.96 11.35,-48.68 0,-18.71 -3.78,-35.04 -11.35,-48.97 -7.57,-13.94 -18.02,-24.59 -31.36,-31.96 -13.34,-7.36 -28.37,-11.05 -45.09,-11.05 -16.72,0 -31.66,3.69 -44.8,11.05 -13.14,7.37 -23.39,18.02 -30.75,31.96 -7.37,13.93 -11.05,30.26 -11.05,48.97 0,18.72 3.68,34.94 11.05,48.68 7.36,13.74 17.61,24.19 30.75,31.36 13.14,7.16 28.08,10.75 44.8,10.75zm281.31 -283.11c0,-17.52 5.97,-26.28 17.92,-26.28 4.38,0 9.16,1.5 14.33,4.48 5.18,2.99 12.94,8.66 23.3,17.02l205.46 160.07 0 -154.69c0,-11.95 5.97,-17.92 17.91,-17.92l104.53 0c11.94,0 17.92,5.97 17.92,17.92l0 382.85c0,17.52 -5.98,26.28 -17.92,26.28 -4.38,0 -9.16,-1.49 -14.34,-4.48 -5.17,-2.99 -12.94,-8.66 -23.29,-17.02l-205.46 -160.07 0 154.69c0,11.95 -5.97,17.92 -17.92,17.92l-104.52 0c-11.95,0 -17.92,-5.97 -17.92,-17.92l0 -382.85zm452.14 192.32c0,-42.6 9.75,-80.53 29.26,-113.78 19.52,-33.25 46.69,-59.03 81.53,-77.34 34.84,-18.32 74.36,-27.48 118.56,-27.48 44.6,0 84.41,9.16 119.45,27.48 35.04,18.31 62.32,44.09 81.83,77.34 19.51,33.25 29.27,71.18 29.27,113.78 0,42.61 -9.76,80.34 -29.27,113.19 -19.51,32.85 -46.79,58.43 -81.83,76.74 -35.04,18.32 -74.85,27.48 -119.45,27.48 -44.6,0 -84.22,-9.16 -118.86,-27.48 -34.64,-18.31 -61.71,-43.89 -81.23,-76.74 -19.51,-32.85 -29.26,-70.58 -29.26,-113.19zm229.35 90.79c16.72,0 31.75,-3.59 45.09,-10.75 13.34,-7.17 23.79,-17.62 31.36,-31.36 7.57,-13.74 11.35,-29.96 11.35,-48.68 0,-18.71 -3.78,-35.04 -11.35,-48.97 -7.57,-13.94 -18.02,-24.59 -31.36,-31.96 -13.34,-7.36 -28.37,-11.05 -45.09,-11.05 -16.72,0 -31.66,3.69 -44.8,11.05 -13.14,7.37 -23.39,18.02 -30.75,31.96 -7.37,13.93 -11.05,30.26 -11.05,48.97 0,18.72 3.68,34.94 11.05,48.68 7.36,13.74 17.61,24.19 30.75,31.36 13.14,7.16 28.08,10.75 44.8,10.75zm-1686.09 538.14c0,-11.95 5.97,-17.92 17.92,-17.92l104.52 0c11.95,0 17.92,5.97 17.92,17.92l0 382.25c0,11.95 -5.97,17.92 -17.92,17.92l-104.52 0c-11.95,0 -17.92,-5.97 -17.92,-17.92l0 -382.25zm206.06 -0.6c0,-17.52 5.97,-26.28 17.92,-26.28 4.38,0 9.16,1.5 14.33,4.48 5.18,2.99 12.94,8.66 23.3,17.02l205.46 160.07 0 -154.69c0,-11.95 5.97,-17.92 17.91,-17.92l104.53 0c11.94,0 17.92,5.97 17.92,17.92l0 382.85c0,17.52 -5.98,26.28 -17.92,26.28 -4.38,0 -9.16,-1.49 -14.34,-4.48 -5.17,-2.99 -12.94,-8.66 -23.29,-17.02l-205.46 -160.07 0 154.69c0,11.95 -5.97,17.92 -17.92,17.92l-104.52 0c-11.95,0 -17.92,-5.97 -17.92,-17.92l0 -382.85zm550.69 117.66c0,-4.38 -0.7,-7.26 -2.09,-8.66 -1.4,-1.39 -4.28,-2.09 -8.66,-2.09l-78.84 0c-11.95,0 -17.92,-5.97 -17.92,-17.91l0 -88.4c0,-11.95 5.97,-17.92 17.92,-17.92l319.54 0c11.94,0 17.91,5.97 17.91,17.92l0 88.4c0,11.94 -5.97,17.91 -17.91,17.91l-78.84 0c-3.98,0 -6.77,0.7 -8.36,2.09 -1.6,1.4 -2.39,4.28 -2.39,8.66l0 265.19c0,11.95 -5.98,17.92 -17.92,17.92l-104.52 0c-11.95,0 -17.92,-5.97 -17.92,-17.92l0 -265.19zm289.67 -117.06c0,-11.95 5.97,-17.92 17.92,-17.92l266.98 0c11.94,0 17.92,5.97 17.92,17.92l0 71.67c0,11.95 -5.98,17.92 -17.92,17.92l-133.79 0c-3.98,0 -6.77,0.7 -8.36,2.09 -1.6,1.39 -2.39,4.28 -2.39,8.66l0 27.47c0,3.99 0.79,6.77 2.39,8.37 1.59,1.59 4.38,2.39 8.36,2.39l114.08 0c11.94,0 17.92,5.97 17.92,17.91l0 68.69c0,11.95 -5.98,17.92 -17.92,17.92l-114.08 0c-3.98,0 -6.77,0.69 -8.36,2.09 -1.6,1.39 -2.39,4.28 -2.39,8.66l0 28.07c0,3.98 0.79,6.77 2.39,8.36 1.59,1.6 4.38,2.39 8.36,2.39l134.38 0c11.95,0 17.92,5.97 17.92,17.92l0 71.67c0,11.95 -5.97,17.92 -17.92,17.92l-267.57 0c-11.95,0 -17.92,-5.97 -17.92,-17.92l0 -382.25zm619.97 197.7c0,-11.95 5.97,-17.92 17.92,-17.92l104.52 0c11.94,0 17.92,5.97 17.92,17.92l0 142.74c0,7.57 -1.1,13.24 -3.29,17.03 -2.19,3.78 -6.67,7.46 -13.44,11.04 -52.16,27.08 -109.5,40.62 -172.01,40.62 -44.6,0 -84.31,-8.86 -119.16,-26.58 -34.84,-17.72 -61.91,-42.7 -81.22,-74.96 -19.32,-32.25 -28.97,-69.48 -28.97,-111.69 0,-43.8 9.75,-82.62 29.26,-116.46 19.52,-33.85 47.09,-60.03 82.73,-78.54 35.63,-18.52 76.55,-27.78 122.74,-27.78 30.26,0 58.93,4.08 86,12.25 27.08,8.16 51.77,19.61 74.06,34.34 7.97,5.18 11.95,10.75 11.95,16.72 0,3.59 -1.59,8.17 -4.78,13.74l-41.21 66.89c-2.39,3.99 -4.88,6.97 -7.47,8.96 -2.58,1.99 -5.47,2.99 -8.66,2.99 -2.39,0 -6.77,-1.39 -13.14,-4.18 -15.92,-8.36 -31.15,-14.54 -45.69,-18.52 -14.53,-3.98 -30.16,-5.97 -46.88,-5.97 -20.71,0 -38.23,3.98 -52.56,11.95 -14.34,7.96 -25.19,19.01 -32.55,33.14 -7.37,14.14 -11.05,29.97 -11.05,47.49 0,17.52 3.48,33.25 10.45,47.18 6.97,13.94 17.12,24.89 30.46,32.85 13.34,7.97 29.17,11.95 47.48,11.95 15.13,0 27.48,-1.6 37.03,-4.78 3.59,-1.2 6.07,-2.79 7.47,-4.78 1.39,-1.99 2.09,-4.98 2.09,-8.96l0 -68.68zm197.1 -197.7c0,-11.95 5.97,-17.92 17.92,-17.92l161.26 0c44.6,0 81.43,4.88 110.5,14.63 29.06,9.76 50.86,25.09 65.4,45.99 14.53,20.91 21.8,47.89 21.8,80.93 0,26.28 -5.28,47.79 -15.83,64.51 -10.55,16.72 -26.58,30.86 -48.08,42.41l86.6 149.91c1.99,2.79 2.99,6.17 2.99,10.15 0,6.37 -5.18,9.56 -15.53,9.56l-106.91 0c-9.96,0 -17.22,-1.29 -21.8,-3.88 -4.58,-2.59 -8.86,-7.87 -12.84,-15.83l-84.22 -158.87c-1.99,-4.78 -2.98,-8.17 -2.98,-10.16 0,-4.78 4.58,-7.96 13.73,-9.55 18.32,-2.79 33.25,-9.16 44.8,-19.12 11.55,-9.95 17.32,-23.09 17.32,-39.42 0,-17.91 -5.57,-31.15 -16.72,-39.71 -11.15,-8.57 -28.67,-12.85 -52.56,-12.85l-13.74 0c-3.98,0 -6.77,0.7 -8.36,2.09 -1.6,1.4 -2.39,4.29 -2.39,8.66l0 280.72c0,11.95 -5.97,17.92 -17.92,17.92l-104.52 0c-11.95,0 -17.92,-5.97 -17.92,-17.92l0 -382.25zm545.31 380.46c-3.99,7.96 -7.97,13.24 -11.95,15.83 -3.98,2.59 -9.95,3.88 -17.92,3.88l-103.32 0c-9.56,0 -14.34,-2.99 -14.34,-8.96 0,-3.58 1,-7.17 2.99,-10.75l200.08 -379.27c5.98,-11.54 11.15,-19.61 15.53,-24.19 4.38,-4.57 9.56,-6.86 15.53,-6.86 5.58,0 10.55,2.29 14.93,6.86 4.38,4.58 9.76,12.65 16.13,24.19l200.08 379.27c2,3.58 2.99,7.17 2.99,10.75 0,5.97 -4.78,8.96 -14.33,8.96l-107.51 0c-7.97,0 -13.94,-1.29 -17.92,-3.88 -3.98,-2.59 -7.96,-7.87 -11.95,-15.83l-84.81 -170.22 -84.21 170.22zm404.95 -263.4c0,-4.38 -0.7,-7.26 -2.09,-8.66 -1.4,-1.39 -4.28,-2.09 -8.66,-2.09l-78.84 0c-11.95,0 -17.92,-5.97 -17.92,-17.91l0 -88.4c0,-11.95 5.97,-17.92 17.92,-17.92l319.54 0c11.94,0 17.91,5.97 17.91,17.92l0 88.4c0,11.94 -5.97,17.91 -17.91,17.91l-78.84 0c-3.98,0 -6.77,0.7 -8.36,2.09 -1.6,1.4 -2.39,4.28 -2.39,8.66l0 265.19c0,11.95 -5.98,17.92 -17.92,17.92l-104.52 0c-11.95,0 -17.92,-5.97 -17.92,-17.92l0 -265.19zm274.74 74.66c0,-42.6 9.75,-80.53 29.26,-113.78 19.52,-33.25 46.69,-59.03 81.53,-77.34 34.84,-18.32 74.36,-27.48 118.56,-27.48 44.6,0 84.41,9.16 119.45,27.48 35.04,18.31 62.32,44.09 81.83,77.34 19.51,33.25 29.27,71.18 29.27,113.78 0,42.61 -9.76,80.34 -29.27,113.19 -19.51,32.85 -46.79,58.43 -81.83,76.74 -35.04,18.32 -74.85,27.48 -119.45,27.48 -44.6,0 -84.22,-9.16 -118.86,-27.48 -34.64,-18.31 -61.71,-43.89 -81.23,-76.74 -19.51,-32.85 -29.26,-70.58 -29.26,-113.19zm229.35 90.79c16.72,0 31.75,-3.59 45.09,-10.75 13.34,-7.17 23.79,-17.62 31.36,-31.36 7.57,-13.74 11.35,-29.96 11.35,-48.68 0,-18.71 -3.78,-35.04 -11.35,-48.97 -7.57,-13.94 -18.02,-24.59 -31.36,-31.96 -13.34,-7.36 -28.37,-11.05 -45.09,-11.05 -16.72,0 -31.66,3.69 -44.8,11.05 -13.14,7.37 -23.39,18.02 -30.75,31.96 -7.37,13.93 -11.05,30.26 -11.05,48.97 0,18.72 3.68,34.94 11.05,48.68 7.36,13.74 17.61,24.19 30.75,31.36 13.14,7.16 28.08,10.75 44.8,10.75zm281.31 -282.51c0,-11.95 5.97,-17.92 17.92,-17.92l161.26 0c44.6,0 81.43,4.88 110.5,14.63 29.06,9.76 50.86,25.09 65.4,45.99 14.53,20.91 21.8,47.89 21.8,80.93 0,26.28 -5.28,47.79 -15.83,64.51 -10.55,16.72 -26.58,30.86 -48.08,42.41l86.6 149.91c1.99,2.79 2.99,6.17 2.99,10.15 0,6.37 -5.18,9.56 -15.53,9.56l-106.91 0c-9.96,0 -17.22,-1.29 -21.8,-3.88 -4.58,-2.59 -8.86,-7.87 -12.84,-15.83l-84.22 -158.87c-1.99,-4.78 -2.98,-8.17 -2.98,-10.16 0,-4.78 4.58,-7.96 13.73,-9.55 18.32,-2.79 33.25,-9.16 44.8,-19.12 11.55,-9.95 17.32,-23.09 17.32,-39.42 0,-17.91 -5.57,-31.15 -16.72,-39.71 -11.15,-8.57 -28.67,-12.85 -52.56,-12.85l-13.74 0c-3.98,0 -6.77,0.7 -8.36,2.09 -1.6,1.4 -2.39,4.29 -2.39,8.66l0 280.72c0,11.95 -5.97,17.92 -17.92,17.92l-104.52 0c-11.95,0 -17.92,-5.97 -17.92,-17.92l0 -382.25z"/>
 </g>
</svg>